HIERARCHY
ROOT joint_Root
{
	OFFSET 0.0 0.0 0.0
	CHANNELS 6 Xposition Yposition Zposition Zrotation Xrotation Yrotation 
	JOINT Hips
	{
		OFFSET -0.726466 93.3139 -2.00062
		CHANNELS 6 Xposition Yposition Zposition Zrotation Xrotation Yrotation 
		JOINT Spine
		{
			OFFSET 15.7357 0.0 0.0
			CHANNELS 6 Xposition Yposition Zposition Zrotation Xrotation Yrotation 
			JOINT Chest
			{
				OFFSET 8.98455 -0.406207 0.0
				CHANNELS 6 Xposition Yposition Zposition Zrotation Xrotation Yrotation 
				JOINT Neck
				{
					OFFSET 16.3773 0.0 0.0
					CHANNELS 6 Xposition Yposition Zposition Zrotation Xrotation Yrotation 
					JOINT Head
					{
						OFFSET 6.45672 0.0 0.0
						CHANNELS 6 Xposition Yposition Zposition Zrotation Xrotation Yrotation 
						End Site
						{
							OFFSET 0.0 0.0 0.0
						}
					}
				}
				JOINT Shoulder_L
				{
					OFFSET 12.9942 -0.242716 4.98039
					CHANNELS 6 Xposition Yposition Zposition Zrotation Xrotation Yrotation 
					JOINT UpperArm_L
					{
						OFFSET 5.34809 0.0 0.0
						CHANNELS 6 Xposition Yposition Zposition Zrotation Xrotation Yrotation 
						JOINT LowerArm_L
						{
							OFFSET 24.3286 1.87007e-05 0.0
							CHANNELS 6 Xposition Yposition Zposition Zrotation Xrotation Yrotation 
							JOINT Hand_L
							{
								OFFSET 22.2916 0.0 0.0
								CHANNELS 6 Xposition Yposition Zposition Zrotation Xrotation Yrotation 
								End Site
								{
									OFFSET 0.0 0.0 0.0
								}
							}
						}
					}
				}
				JOINT Shoulder_R
				{
					OFFSET 12.9945 -0.242716 -4.98039
					CHANNELS 6 Xposition Yposition Zposition Zrotation Xrotation Yrotation 
					JOINT UpperArm_R
					{
						OFFSET -5.34813 0.0 0.0
						CHANNELS 6 Xposition Yposition Zposition Zrotation Xrotation Yrotation 
						JOINT LowerArm_R
						{
							OFFSET -24.3289 0.000322201 0.0
							CHANNELS 6 Xposition Yposition Zposition Zrotation Xrotation Yrotation 
							JOINT Hand_R
							{
								OFFSET -22.2915 -0.000108084 0.0
								CHANNELS 6 Xposition Yposition Zposition Zrotation Xrotation Yrotation 
								End Site
								{
									OFFSET 0.0 0.0 0.0
								}
							}
						}
					}
				}
			}
		}
		JOINT UpperLeg_L
		{
			OFFSET -2.19248 -6.46944 0.0
			CHANNELS 6 Xposition Yposition Zposition Zrotation Xrotation Yrotation 
			JOINT LowerLeg_L
			{
				OFFSET 39.0811 0.0 -1.23785e-05
				CHANNELS 6 Xposition Yposition Zposition Zrotation Xrotation Yrotation 
				JOINT Foot_L
				{
					OFFSET 40.9854 0.0 -1.26872e-05
					CHANNELS 6 Xposition Yposition Zposition Zrotation Xrotation Yrotation 
					JOINT Toes_L
					{
						OFFSET 11.7543 0.0 0.0
						CHANNELS 6 Xposition Yposition Zposition Zrotation Xrotation Yrotation 
						End Site
						{
							OFFSET 0.0 0.0 0.0
						}
					}
				}
			}
		}
		JOINT UpperLeg_R
		{
			OFFSET -2.19251 6.46944 0.0
			CHANNELS 6 Xposition Yposition Zposition Zrotation Xrotation Yrotation 
			JOINT LowerLeg_R
			{
				OFFSET -39.0811 -0.00228153 -0.0401928
				CHANNELS 6 Xposition Yposition Zposition Zrotation Xrotation Yrotation 
				JOINT Foot_R
				{
					OFFSET -40.9854 0.0 0.0
					CHANNELS 6 Xposition Yposition Zposition Zrotation Xrotation Yrotation 
					JOINT Toes_R
					{
						OFFSET -11.7543 0.0 0.0
						CHANNELS 6 Xposition Yposition Zposition Zrotation Xrotation Yrotation 
						End Site
						{
							OFFSET 0.0 0.0 0.0
						}
					}
				}
			}
		}
	}
}
MOTION
Frames:	4
Frame Time:	0.0333333
0.000000 0.000000 0.000000 0.000000 0.000000 -0.000000 -1.949520 92.045300 -2.577310 88.199800 -2.189940 4.479910 15.735700 0.000005 -0.000001 63.172900 85.833200 -59.578000 8.984550 -0.406207 -0.000000 -0.192154 -4.009470 7.181490 16.377300 -0.000001 -0.000001 3.060140 -1.461040 2.599770 6.456720 -0.000001 -0.000000 2.564000 0.521389 13.462300 12.994200 -0.242716 4.980390 -85.004500 -10.424000 -64.214300 5.348090 -0.000007 -0.000001 -65.641800 -53.688100 -107.447000 24.328600 0.000019 0.000005 2.895640 2.751180 -46.500400 22.291600 -0.000001 0.000005 18.552300 5.575990 -9.999250 12.994500 -0.242716 -4.980390 90.081300 -0.218543 -69.589000 -5.348130 -0.000001 -0.000004 -37.255400 76.642700 -10.319400 -24.328900 0.000322 -0.000009 22.574000 2.305830 -84.473100 -22.291500 -0.000108 -0.000004 39.946700 5.671380 -24.638100 -2.192480 -6.469440 -0.000000 -168.854000 -14.528900 -1.295690 39.081100 -0.000007 -0.000012 -0.169916 0.444858 20.904800 40.985400 -0.000006 -0.000013 -6.523680 2.520130 -63.207400 11.754300 -0.000000 0.000003 -0.000022 -0.000280 -16.588500 -2.192510 6.469440 -0.000001 174.733000 18.396600 179.042000 -39.081100 -0.002282 -0.040193 -0.079681 0.218901 20.765200 -40.985400 0.000008 0.000006 -3.351870 2.519880 -63.695300 -11.754300 -0.000006 -0.000006 -0.007293 -0.082160 -19.918000
0.000000 0.000000 0.000000 0.000000 0.000000 -0.000000 -1.954210 92.040000 -2.555450 88.210200 -2.167130 4.509820 15.735700 0.000005 -0.000001 63.018400 85.810900 -59.437700 8.984550 -0.406207 -0.000000 -0.161972 -4.047760 7.153930 16.377300 -0.000001 -0.000001 3.070290 -1.459260 2.570500 6.456720 -0.000001 -0.000000 2.670910 0.548043 13.525600 12.994200 -0.242716 4.980390 -84.991400 -10.450700 -64.212200 5.348090 -0.000007 -0.000001 -65.635300 -53.646900 -107.404000 24.328600 0.000019 0.000005 2.938880 2.797610 -46.446800 22.291600 -0.000001 0.000005 18.565300 5.577310 -10.069000 12.994500 -0.242716 -4.980390 90.064700 -0.173756 -69.577000 -5.348130 -0.000001 -0.000004 -37.552800 76.523400 -10.005900 -24.328900 0.000322 -0.000009 22.594500 2.308140 -84.473200 -22.291500 -0.000108 -0.000004 39.872500 5.671240 -24.661600 -2.192480 -6.469440 -0.000000 -168.857000 -14.506300 -1.267650 39.081100 -0.000007 -0.000012 -0.168966 0.441841 20.927800 40.985400 -0.000006 -0.000013 -6.521980 2.536410 -63.231200 11.754300 -0.000000 0.000003 -0.000021 -0.000267 -16.588000 -2.192510 6.469440 -0.000001 174.707000 18.423100 179.065000 -39.081100 -0.002282 -0.040193 -0.081484 0.223099 20.812600 -40.985400 0.000008 0.000006 -3.329420 2.515150 -63.732500 -11.754300 -0.000006 -0.000006 -0.007037 -0.079977 -19.828900
0.000000 0.000000 0.000000 0.000000 0.000000 -0.000000 -1.979170 92.036600 -2.550370 88.174600 -2.143740 4.512360 15.735700 0.000005 -0.000001 62.727900 85.798400 -59.133800 8.984550 -0.406207 -0.000000 -0.156829 -4.097840 7.180810 16.377300 -0.000001 -0.000001 3.120290 -1.396270 2.476440 6.456720 -0.000001 -0.000000 2.662430 0.607667 13.656000 12.994200 -0.242716 4.980390 -84.990800 -10.437400 -64.180900 5.348090 -0.000007 -0.000001 -65.558400 -53.627100 -107.325000 24.328600 0.000019 0.000005 2.844910 2.717240 -46.348700 22.291600 -0.000001 0.000005 18.565000 5.576790 -10.041400 12.994500 -0.242716 -4.980390 90.045900 -0.123295 -69.554400 -5.348130 -0.000001 -0.000004 -37.766900 76.391500 -9.715060 -24.328900 0.000322 -0.000009 22.557100 2.270910 -84.551800 -22.291500 -0.000108 -0.000004 39.581000 5.670570 -24.769900 -2.192480 -6.469440 -0.000000 -168.803000 -14.488900 -1.286860 39.081100 -0.000007 -0.000012 -0.170705 0.445607 20.961300 40.985400 -0.000006 -0.000013 -6.532130 2.574200 -63.240900 11.754300 -0.000000 0.000003 -0.000034 -0.000409 -16.593500 -2.192510 6.469440 -0.000001 174.750000 18.399300 179.087000 -39.081100 -0.002282 -0.040193 -0.082001 0.224672 20.794700 -40.985400 0.000008 0.000006 -3.364890 2.493840 -63.734500 -11.754300 -0.000006 -0.000006 -0.006977 -0.079467 -19.808100
0.000000 0.000000 0.000000 0.000000 0.000000 -0.000000 -1.994830 92.038000 -2.510320 88.129300 -2.065550 4.470280 15.735700 0.000005 -0.000001 62.199600 85.786100 -58.594700 8.984550 -0.406207 -0.000000 -0.167987 -4.179030 7.202200 16.377300 -0.000001 -0.000001 3.075020 -1.298670 2.370980 6.456720 -0.000001 -0.000000 2.561720 0.794125 13.763500 12.994200 -0.242716 4.980390 -85.000900 -10.387000 -64.119100 5.348090 -0.000007 -0.000001 -65.523100 -53.660500 -107.340000 24.328600 0.000019 0.000005 2.926000 2.804390 -46.251600 22.291600 -0.000001 0.000005 18.487400 5.576940 -10.049400 12.994500 -0.242716 -4.980390 90.013100 -0.034990 -69.512600 -5.348130 -0.000001 -0.000004 -37.772600 76.301700 -9.631560 -24.328900 0.000322 -0.000009 22.611600 2.268720 -84.571500 -22.291500 -0.000108 -0.000004 39.579400 5.670200 -24.829200 -2.192480 -6.469440 -0.000000 -168.753000 -14.479000 -1.315150 39.081100 -0.000007 -0.000012 -0.169920 0.443590 20.959900 40.985400 -0.000006 -0.000013 -6.540960 2.612020 -63.253500 11.754300 -0.000000 0.000003 -0.000026 -0.000314 -16.589800 -2.192510 6.469440 -0.000001 174.816000 18.482500 179.108000 -39.081100 -0.002282 -0.040193 -0.080705 0.221722 20.755100 -40.985400 0.000008 0.000006 -3.282520 2.454510 -63.760200 -11.754300 -0.000006 -0.000006 -0.006908 -0.078875 -19.784000
